HIERARCHY
ROOT Hips
{
	OFFSET 0.000000 104.274902 0.000000
	CHANNELS 6 Xposition Yposition Zposition Xrotation Yrotation Zrotation
	JOINT Spine
	{
		OFFSET 0.000000 10.181549 0.131524
		CHANNELS 6 Xposition Yposition Zposition Xrotation Yrotation Zrotation
		JOINT Spine1
		{
			OFFSET 0.000000 9.893990 -1.470706
			CHANNELS 3 Xrotation Yrotation Zrotation
			JOINT Spine2
			{
				OFFSET 0.000000 9.220787 -1.370637
				CHANNELS 3 Xrotation Yrotation Zrotation
				JOINT Neck
				{
					OFFSET 0.000000 16.740372 -2.049022
					CHANNELS 6 Xposition Yposition Zposition Xrotation Yrotation Zrotation
					JOINT Head
					{
						OFFSET 0.000000 9.617859 1.684976
						CHANNELS 6 Xposition Yposition Zposition Xrotation Yrotation Zrotation
						JOINT HeadTop_End
						{
							OFFSET 0.000000 22.037384 7.501072
							CHANNELS 6 Xposition Yposition Zposition Xrotation Yrotation Zrotation
							End Site
							{
								OFFSET 0.000000 23.106567 -2.828246
							}
						}
					}
				}
				JOINT RightShoulder
				{
					OFFSET -4.570000 11.014877 -2.160840
					CHANNELS 6 Xposition Yposition Zposition Xrotation Yrotation Zrotation
					JOINT RightArm
					{
						OFFSET -10.592867 -0.524796 -2.232105
						CHANNELS 3 Xrotation Yrotation Zrotation
						JOINT RightForeArm
						{
							OFFSET -27.841497 0.000000 -0.000002
							CHANNELS 3 Xrotation Yrotation Zrotation
							JOINT RightHand
							{
								OFFSET -28.328812 0.000000 -0.000001
								CHANNELS 3 Xrotation Yrotation Zrotation
								JOINT RightHandThumb1
								{
									OFFSET -2.464798 -1.573990 2.681911
									CHANNELS 6 Xposition Yposition Zposition Xrotation Yrotation Zrotation
									JOINT RightHandThumb2
									{
										OFFSET -3.244781 -1.873383 1.873376
										CHANNELS 3 Xrotation Yrotation Zrotation
										JOINT RightHandThumb3
										{
											OFFSET -2.646263 -1.527817 1.527818
											CHANNELS 6 Xposition Yposition Zposition Xrotation Yrotation Zrotation
											JOINT RightHandThumb4
											{
												OFFSET -1.994591 -1.151581 1.151575
												CHANNELS 6 Xposition Yposition Zposition Xrotation Yrotation Zrotation
												End Site
												{
													OFFSET -1.860176 -1.142715 1.365483
												}
											}
										}
									}
								}
								JOINT RightHandIndex1
								{
									OFFSET -9.108299 -0.517883 2.259803
									CHANNELS 6 Xposition Yposition Zposition Xrotation Yrotation Zrotation
									JOINT RightHandIndex2
									{
										OFFSET -3.699997 0.000000 0.000000
										CHANNELS 3 Xrotation Yrotation Zrotation
										JOINT RightHandIndex3
										{
											OFFSET -2.850006 0.000000 0.000000
											CHANNELS 3 Xrotation Yrotation Zrotation
											JOINT RightHandIndex4
											{
												OFFSET -2.772194 0.000000 0.000000
												CHANNELS 3 Xrotation Yrotation Zrotation
												End Site
												{
													OFFSET -2.772202 0.000000 -0.000484
												}
											}
										}
									}
								}
								JOINT RightHandMiddle1
								{
									OFFSET -9.532501 0.000000 -0.000000
									CHANNELS 6 Xposition Yposition Zposition Xrotation Yrotation Zrotation
									JOINT RightHandMiddle2
									{
										OFFSET -3.699997 0.000000 0.000000
										CHANNELS 3 Xrotation Yrotation Zrotation
										JOINT RightHandMiddle3
										{
											OFFSET -2.949997 0.000000 0.000000
											CHANNELS 3 Xrotation Yrotation Zrotation
											JOINT RightHandMiddle4
											{
												OFFSET -2.946594 0.000000 0.000000
												CHANNELS 3 Xrotation Yrotation Zrotation
												End Site
												{
													OFFSET -2.946602 0.000000 -0.000982
												}
											}
										}
									}
								}
								JOINT RightHandRing1
								{
									OFFSET -9.103600 -0.043106 -1.865100
									CHANNELS 6 Xposition Yposition Zposition Xrotation Yrotation Zrotation
									JOINT RightHandRing2
									{
										OFFSET -3.379303 0.000000 0.000000
										CHANNELS 3 Xrotation Yrotation Zrotation
										JOINT RightHandRing3
										{
											OFFSET -2.889694 0.000000 0.000000
											CHANNELS 3 Xrotation Yrotation Zrotation
											JOINT RightHandRing4
											{
												OFFSET -2.638802 0.000000 0.000000
												CHANNELS 3 Xrotation Yrotation Zrotation
												End Site
												{
													OFFSET -2.638802 0.000000 0.004218
												}
											}
										}
									}
								}
								JOINT RightHandPinky1
								{
									OFFSET -8.076698 -0.486725 -3.806299
									CHANNELS 6 Xposition Yposition Zposition Xrotation Yrotation Zrotation
									JOINT RightHandPinky2
									{
										OFFSET -3.600006 0.000000 0.000000
										CHANNELS 3 Xrotation Yrotation Zrotation
										JOINT RightHandPinky3
										{
											OFFSET -2.099998 0.000000 0.000000
											CHANNELS 3 Xrotation Yrotation Zrotation
											JOINT RightHandPinky4
											{
												OFFSET -2.115791 0.000000 0.000000
												CHANNELS 3 Xrotation Yrotation Zrotation
												End Site
												{
													OFFSET -2.115799 0.000000 0.000174
												}
											}
										}
									}
								}
							}
						}
					}
				}
				JOINT LeftShoulder
				{
					OFFSET 4.570400 11.014679 -2.160816
					CHANNELS 6 Xposition Yposition Zposition Xrotation Yrotation Zrotation
					JOINT LeftArm
					{
						OFFSET 10.592373 -0.524597 -2.232116
						CHANNELS 3 Xrotation Yrotation Zrotation
						JOINT LeftForeArm
						{
							OFFSET 27.841488 0.000000 0.000001
							CHANNELS 3 Xrotation Yrotation Zrotation
							JOINT LeftHand
							{
								OFFSET 28.328808 0.000000 -0.000000
								CHANNELS 3 Xrotation Yrotation Zrotation
								JOINT LeftHandThumb1
								{
									OFFSET 2.466103 -1.576202 2.681698
									CHANNELS 6 Xposition Yposition Zposition Xrotation Yrotation Zrotation
									JOINT LeftHandThumb2
									{
										OFFSET 3.243317 -1.872528 1.872530
										CHANNELS 3 Xrotation Yrotation Zrotation
										JOINT LeftHandThumb3
										{
											OFFSET 2.647881 -1.528763 1.528754
											CHANNELS 6 Xposition Yposition Zposition Xrotation Yrotation Zrotation
											JOINT LeftHandThumb4
											{
												OFFSET 1.998924 -1.154083 1.154080
												CHANNELS 6 Xposition Yposition Zposition Xrotation Yrotation Zrotation
												End Site
												{
													OFFSET 1.884041 -1.149155 1.337651
												}
											}
										}
									}
								}
								JOINT LeftHandIndex1
								{
									OFFSET 9.109299 -0.518005 2.259900
									CHANNELS 6 Xposition Yposition Zposition Xrotation Yrotation Zrotation
									JOINT LeftHandIndex2
									{
										OFFSET 3.699997 0.000000 0.000000
										CHANNELS 3 Xrotation Yrotation Zrotation
										JOINT LeftHandIndex3
										{
											OFFSET 2.850006 0.000000 0.000000
											CHANNELS 3 Xrotation Yrotation Zrotation
											JOINT LeftHandIndex4
											{
												OFFSET 2.774895 0.000000 0.000000
												CHANNELS 3 Xrotation Yrotation Zrotation
												End Site
												{
													OFFSET 2.774902 0.000000 -0.000072
												}
											}
										}
									}
								}
								JOINT LeftHandMiddle1
								{
									OFFSET 9.533401 0.000000 0.000000
									CHANNELS 6 Xposition Yposition Zposition Xrotation Yrotation Zrotation
									JOINT LeftHandMiddle2
									{
										OFFSET 3.699997 0.000000 0.000000
										CHANNELS 3 Xrotation Yrotation Zrotation
										JOINT LeftHandMiddle3
										{
											OFFSET 2.949997 0.000000 0.000000
											CHANNELS 3 Xrotation Yrotation Zrotation
											JOINT LeftHandMiddle4
											{
												OFFSET 2.952896 0.000000 0.000000
												CHANNELS 3 Xrotation Yrotation Zrotation
												End Site
												{
													OFFSET 2.952904 0.000000 0.000165
												}
											}
										}
									}
								}
								JOINT LeftHandRing1
								{
									OFFSET 9.104500 -0.042999 -1.865101
									CHANNELS 6 Xposition Yposition Zposition Xrotation Yrotation Zrotation
									JOINT LeftHandRing2
									{
										OFFSET 3.149994 0.000000 0.000000
										CHANNELS 3 Xrotation Yrotation Zrotation
										JOINT LeftHandRing3
										{
											OFFSET 2.950005 0.000000 0.000000
											CHANNELS 3 Xrotation Yrotation Zrotation
											JOINT LeftHandRing4
											{
												OFFSET 2.644302 0.000000 0.000000
												CHANNELS 3 Xrotation Yrotation Zrotation
												End Site
												{
													OFFSET 2.644302 0.000000 0.000083
												}
											}
										}
									}
								}
								JOINT LeftHandPinky1
								{
									OFFSET 8.077805 -0.486893 -3.806302
									CHANNELS 6 Xposition Yposition Zposition Xrotation Yrotation Zrotation
									JOINT LeftHandPinky2
									{
										OFFSET 3.600006 0.000000 0.000000
										CHANNELS 3 Xrotation Yrotation Zrotation
										JOINT LeftHandPinky3
										{
											OFFSET 2.099998 0.000000 0.000000
											CHANNELS 3 Xrotation Yrotation Zrotation
											JOINT LeftHandPinky4
											{
												OFFSET 2.125496 0.000000 0.000000
												CHANNELS 3 Xrotation Yrotation Zrotation
												End Site
												{
													OFFSET 2.125504 0.000000 -0.001254
												}
											}
										}
									}
								}
							}
						}
					}
				}
			}
		}
	}
	JOINT RightUpLeg
	{
		OFFSET -8.207800 -6.751701 -1.599544
		CHANNELS 6 Xposition Yposition Zposition Xrotation Yrotation Zrotation
		JOINT RightLeg
		{
			OFFSET 0.000004 -44.370152 0.345934
			CHANNELS 3 Xrotation Yrotation Zrotation
			JOINT RightFoot
			{
				OFFSET 0.000004 -44.423664 -3.043535
				CHANNELS 3 Xrotation Yrotation Zrotation
				JOINT RightToeBase
				{
					OFFSET 0.000001 -8.728691 10.710592
					CHANNELS 3 Xrotation Yrotation Zrotation
					JOINT RightToe_End
					{
						OFFSET 0.000000 -0.000665 9.278101
						CHANNELS 3 Xrotation Yrotation Zrotation
						End Site
						{
							OFFSET 0.000000 -0.000665 9.278103
						}
					}
				}
			}
		}
	}
	JOINT LeftUpLeg
	{
		OFFSET 8.207800 -6.751701 -1.599544
		CHANNELS 6 Xposition Yposition Zposition Xrotation Yrotation Zrotation
		JOINT LeftLeg
		{
			OFFSET 0.000004 -44.370037 0.346940
			CHANNELS 3 Xrotation Yrotation Zrotation
			JOINT LeftFoot
			{
				OFFSET 0.000004 -44.423611 -3.044388
				CHANNELS 3 Xrotation Yrotation Zrotation
				JOINT LeftToeBase
				{
					OFFSET 0.000001 -8.728690 10.710592
					CHANNELS 3 Xrotation Yrotation Zrotation
					JOINT LeftToe_End
					{
						OFFSET 0.000000 -0.000680 9.278101
						CHANNELS 3 Xrotation Yrotation Zrotation
						End Site
						{
							OFFSET 0.000000 -0.000680 9.278101
						}
					}
				}
			}
		}
	}
}
MOTION
Frames: 4
Frame Time: 0.033333
1.971260 121.707703 237.508163 -12.597831 13.151176 -3.441798 -0.000006 10.181544 0.131548 36.420584 1.670410 8.812749 2.125964 -0.517909 3.750279 2.139158 -0.272402 3.771627 -0.000001 16.740389 -2.048996 7.416937 -1.825290 -0.793407 -0.000002 9.617829 1.684967 3.048421 -11.657871 2.569242 0.000003 22.037415 7.501076 -0.000001 0.000000 0.000000 -4.569999 11.014897 -2.160822 -0.964936 -7.163290 -1.246000 18.830210 -8.222770 40.488695 -0.000019 22.343477 0.000034 -1.604742 -23.427192 -2.941391 -2.464805 -1.573954 2.681885 -23.367079 1.222313 -6.021353 8.226701 -26.295689 -2.673088 -2.646240 -1.527791 1.527825 -7.771125 5.812842 -12.477306 -1.994577 -1.151595 1.151585 -0.000001 -0.000002 0.000000 -9.108303 -0.517855 2.259780 0.302466 -0.762099 -18.999312 0.143238 -1.147320 14.231976 0.040034 -0.609881 7.508456 -0.000004 -0.000004 0.000003 -9.532506 0.000018 -0.000014 -3.603624 -5.488007 -5.796600 0.294009 -1.630121 20.447238 0.049385 -0.677055 8.341098 0.000001 -0.000003 0.000001 -9.103616 -0.043124 -1.865103 -0.098266 -11.037548 0.647714 0.651524 -2.377628 30.643828 0.101587 -0.968431 11.976240 -0.000001 0.000000 0.000001 -8.076698 -0.486697 -3.806310 2.782925 -9.007373 6.374315 0.268854 -1.560982 19.543545 0.191093 -1.321640 16.452041 -0.000001 0.000001 -0.000000 4.570396 11.014703 -2.160796 -0.804630 5.467440 8.845689 -6.816819 -11.864254 29.544557 0.000005 -15.820340 0.000006 -9.378993 -18.881549 20.596096 2.466105 -1.576216 2.681712 1.166909 11.798008 3.496252 6.585635 17.101866 1.767118 2.647924 -1.528760 1.528793 -11.541201 -19.928113 5.303268 1.998943 -1.154035 1.154088 0.000002 -0.000001 -0.000001 9.109272 -0.518019 2.259906 -3.254375 -8.032881 14.222949 0.024725 0.538254 -5.259772 0.000312 -0.059315 0.578807 -0.000002 -0.000003 -0.000000 9.533381 -0.000019 0.000009 0.510465 5.639714 15.216313 0.121104 1.186362 -11.658562 0.189802 -1.480528 14.608209 -0.000001 0.000001 -0.000000 9.104492 -0.042999 -1.865096 1.655775 3.194840 12.209289 0.048964 0.756688 -7.404868 0.023901 0.529433 -5.173441 -0.000001 0.000004 0.000001 8.077798 -0.486908 -3.806295 -0.651666 12.888663 5.190242 0.048429 0.752603 -7.364676 0.035202 -0.642027 6.277767 0.000002 0.000003 0.000000 -8.207808 -6.751706 -1.599522 -52.309571 -7.576347 -15.305860 103.415341 4.237934 2.233887 -7.791552 1.134880 -5.662401 -3.192023 -0.000000 0.000002 0.000001 0.000000 -0.000000 8.207793 -6.751711 -1.599536 -42.444179 6.530135 3.034760 29.235569 -1.927605 -1.789151 34.849719 3.844968 5.295846 -2.529132 -0.000010 0.000002 -0.000000 -0.000002 -0.000001 
2.233980 116.308144 255.289734 -11.535942 16.014758 -5.222056 0.000000 10.181563 0.131521 31.879679 -4.028168 10.900494 3.605773 -1.204987 4.191507 3.661233 -0.962710 4.216675 -0.000001 16.740376 -2.049003 9.044711 -1.274528 -1.550642 -0.000002 9.617896 1.684962 3.268126 -8.854201 -0.295932 -0.000001 22.037415 7.501060 -0.000004 -0.000000 0.000000 -4.570002 11.014864 -2.160822 -1.776467 -12.157972 0.124217 22.381137 -10.921590 49.244462 -0.000017 19.619882 0.000013 -3.379328 -23.230015 -5.135725 -2.464779 -1.574003 2.681898 -23.682491 1.206708 -6.152038 9.953547 -30.184839 -2.037381 -2.646231 -1.527838 1.527804 -7.818197 5.815066 -12.516603 -1.994615 -1.151609 1.151579 0.000000 -0.000002 0.000000 -9.108266 -0.517882 2.259799 0.203123 -1.089012 -14.805538 0.117927 -1.042452 12.907046 0.027158 -0.502765 6.183877 -0.000002 -0.000000 0.000003 -9.532472 -0.000009 0.000000 -1.755700 -4.604682 -2.029283 0.293000 -1.627406 20.411747 0.048966 -0.674197 8.305637 0.000001 0.000002 -0.000000 -9.103585 -0.043105 -1.865117 -0.078052 -12.020645 0.865406 0.642596 -2.362539 30.428459 0.097966 -0.951299 11.761146 -0.000001 0.000001 -0.000001 -8.076674 -0.486708 -3.806301 3.216768 -9.264321 9.560998 0.250813 -1.509231 18.870344 0.175842 -1.269000 15.778994 -0.000001 0.000001 -0.000001 4.570397 11.014660 -2.160825 -0.553949 3.885531 9.709624 -15.801494 -14.321369 26.699650 -0.000009 -32.675304 -0.000003 -13.048743 -22.682525 11.562496 2.466083 -1.576227 2.681706 0.924062 11.806535 1.573368 6.586079 17.105288 1.767475 2.647911 -1.528738 1.528762 -10.018493 -15.623585 5.715613 1.998900 -1.154069 1.154068 -0.000001 -0.000003 0.000001 9.109300 -0.518005 2.259910 -4.218856 -7.089758 8.521201 0.027561 0.568356 -5.554976 0.000846 0.099989 -0.975797 0.000001 0.000000 0.000001 9.533386 0.000002 0.000009 0.776337 7.768823 9.647117 0.174596 1.421073 -14.008848 0.140045 -1.274581 12.539295 0.000000 -0.000002 0.000001 9.104467 -0.043006 -1.865091 2.321920 4.574606 5.297176 0.101168 1.085273 -10.652685 0.061532 0.847803 -8.302593 -0.000002 -0.000001 0.000000 8.077814 -0.486887 -3.806306 -0.695515 12.396502 2.339386 0.078494 0.956905 -9.380389 0.012245 -0.379079 3.701764 -0.000002 -0.000000 -0.000001 -8.207805 -6.751702 -1.599526 -56.510642 -5.628058 -14.390269 94.067086 1.601123 3.986179 -9.042366 1.596295 -4.951341 -5.231784 0.000001 -0.000004 0.000001 -0.000000 0.000000 8.207796 -6.751686 -1.599535 -40.820270 8.553938 5.508241 34.558660 -3.448161 -1.402992 35.974528 4.163881 2.986839 -0.058078 0.000001 0.000001 0.000001 -0.000002 0.000001 
2.249075 109.823799 272.591675 -11.205992 17.969700 -5.815658 -0.000009 10.181552 0.131507 28.585960 -10.643221 11.181697 4.508393 -1.972060 3.994599 4.612849 -1.750905 4.010336 0.000002 16.740402 -2.049014 10.599396 -0.554161 -2.111780 -0.000001 9.617901 1.684955 2.592894 -4.922227 -2.324858 -0.000003 22.037369 7.501078 -0.000003 -0.000000 0.000000 -4.570000 11.014920 -2.160853 -2.718312 -18.095285 1.164649 27.712560 -14.357621 57.565319 -0.000003 18.553592 0.000029 -8.486244 -23.714046 -6.831489 -2.464753 -1.573994 2.681910 -19.344954 1.507221 -4.444130 11.071864 -32.531675 -1.602450 -2.646276 -1.527815 1.527827 -7.721805 5.810620 -12.436148 -1.994611 -1.151586 1.151572 0.000001 -0.000003 -0.000001 -9.108267 -0.517887 2.259809 0.094555 -1.624874 -8.092817 0.111983 -1.016237 12.577109 0.024341 -0.476048 5.854006 -0.000004 -0.000003 -0.000000 -9.532475 -0.000004 -0.000003 -0.190046 -4.540049 4.957382 0.297286 -1.638847 20.561981 0.050738 -0.686304 8.455800 -0.000000 0.000002 -0.000002 -9.103564 -0.043119 -1.865099 0.566604 -12.350128 4.604319 0.662926 -2.396786 30.918108 0.106264 -0.990251 12.250112 -0.000001 -0.000000 0.000002 -8.076653 -0.486717 -3.806293 3.972114 -9.109962 16.869589 0.209193 -1.381500 17.220054 0.141164 -1.139198 14.129010 0.000001 -0.000001 0.000000 4.570400 11.014711 -2.160836 -0.139105 1.666509 9.429556 -28.773733 -15.781193 17.933019 -0.000001 -54.814017 0.000009 -19.952291 -29.579948 -5.471056 2.466152 -1.576245 2.681696 -1.241561 9.849585 0.104369 6.586926 17.111760 1.768133 2.647882 -1.528746 1.528764 -8.305918 -10.922903 6.030833 1.998931 -1.154053 1.154105 0.000000 0.000000 0.000000 9.109333 -0.518032 2.259902 -5.440703 -5.388713 0.283395 0.082795 0.982596 -9.634623 0.022636 0.515168 -5.033679 0.000001 0.000002 -0.000001 9.533425 -0.000017 -0.000001 1.855889 9.798215 -0.491099 0.252074 1.701702 -16.852264 0.087852 -1.011759 9.923370 0.000003 -0.000001 0.000001 9.104533 -0.043028 -1.865103 2.801455 5.216467 -4.098085 0.231196 1.631208 -16.134085 0.163527 1.375993 -13.555903 0.000003 -0.000001 0.000002 8.077822 -0.486904 -3.806299 -0.925067 11.522096 -3.396748 0.134770 1.250764 -12.301335 0.000006 0.009675 -0.094517 0.000000 -0.000000 -0.000000 -8.207804 -6.751712 -1.599569 -60.208896 -3.440708 -13.647532 83.668984 -4.941888 5.585627 -8.082636 2.156639 -5.080259 -8.069627 -0.000003 0.000004 0.000000 -0.000000 0.000001 8.207802 -6.751701 -1.599581 -36.671562 9.604705 6.236646 37.677120 -4.372806 0.025231 36.317683 3.361316 -1.979106 1.013134 0.000005 -0.000000 0.000001 0.000001 -0.000002 
1.909474 102.991745 288.901550 -12.673577 20.060272 -4.541105 -0.000004 10.181556 0.131527 28.509496 -17.344424 9.029222 4.226985 -2.851296 3.495871 4.390549 -2.611493 3.546787 -0.000004 16.740385 -2.049046 11.615817 0.281690 -0.753721 -0.000006 9.617855 1.684966 -0.452021 0.397435 -2.396901 -0.000002 22.037415 7.501090 0.000001 0.000000 -0.000000 -4.570003 11.014884 -2.160854 -3.861308 -24.058409 1.220122 35.470354 -18.883656 65.941371 -0.000018 20.779177 0.000029 -14.908379 -27.362458 -8.572103 -2.464808 -1.573969 2.681914 -20.703275 1.393759 -4.958037 11.494458 -33.385603 -1.433270 -2.646237 -1.527786 1.527803 -7.600948 5.805396 -12.335211 -1.994622 -1.151597 1.151591 0.000001 0.000001 0.000000 -9.108286 -0.517881 2.259805 0.599381 -2.659209 2.595526 0.148408 -1.167554 14.488344 0.042795 -0.630582 7.764739 0.000001 -0.000002 0.000002 -9.532493 -0.000009 0.000001 0.618320 -5.493197 10.905801 0.319140 -1.695960 21.312984 0.060112 -0.746701 9.206276 0.000003 -0.000001 -0.000001 -9.103575 -0.043126 -1.865098 0.272756 -14.259622 4.387805 0.682484 -2.429107 31.382243 0.107877 -0.997578 12.342239 0.000001 0.000001 0.000003 -8.076673 -0.486743 -3.806295 4.791674 -10.258924 19.922702 0.214728 -1.399265 17.448722 0.138473 -1.128395 13.992298 -0.000001 -0.000001 -0.000002 4.570393 11.014671 -2.160849 0.343992 -1.234576 9.996410 -38.089175 -16.791110 7.133300 -0.000028 -74.377844 -0.000037 -23.509970 -35.737606 -17.471853 2.466100 -1.576192 2.681710 -2.748068 8.754575 1.589656 6.588179 17.121005 1.768938 2.647877 -1.528727 1.528758 -7.285176 -8.105837 6.290284 1.998939 -1.154082 1.154078 0.000002 0.000003 0.000000 9.109282 -0.518024 2.259921 -6.241922 -3.635261 -6.805858 0.220453 1.593608 -15.752315 0.096074 1.057838 -10.380425 0.000003 -0.000003 0.000002 9.533371 -0.000009 0.000016 3.055731 10.431421 -11.571309 0.302611 1.860341 -18.478360 0.059341 -0.832515 8.151722 0.000001 -0.000000 -0.000001 9.104477 -0.042991 -1.865097 1.849220 4.134107 -11.638344 0.385849 2.092865 -20.891317 0.295775 1.839778 -18.266757 -0.000003 0.000002 -0.000000 8.077797 -0.486889 -3.806298 -0.711021 11.198671 -11.385551 0.198012 1.511867 -14.924571 0.013329 0.395375 -3.861098 -0.000001 0.000001 -0.000000 -8.207802 -6.751703 -1.599559 -61.792243 -1.661409 -14.334781 71.120144 -8.528139 7.244440 -6.651204 -0.384908 -5.164481 -11.692426 -0.000002 -0.000003 0.000001 -0.000000 -0.000000 8.207794 -6.751685 -1.599583 -22.473296 14.015258 4.783984 27.707076 -9.980516 2.792942 36.081318 0.716921 -8.886804 -27.410567 -0.513126 6.923224 0.000000 0.000001 0.000000 
